<?xml version="1.0" encoding="UTF-8"?>
<svg xmlns="http://www.w3.org/2000/svg" xmlns:xlink="http://www.w3.org/1999/xlink" width="400px" height="400px" viewBox="0 0 400 400" version="1.1">
<g id="surface1">
<path style=" stroke:none;fill-rule:nonzero;fill:rgb(80.000001%,83.137256%,100%);fill-opacity:1;" d="M 140.238281 16.667969 L 316.667969 16.667969 C 335.074219 16.667969 350 31.589844 350 50 L 350 350 C 350 368.410156 335.074219 383.332031 316.667969 383.332031 L 83.332031 383.332031 C 64.925781 383.332031 50 368.410156 50 350 L 50 106.902344 C 50 102.484375 51.757812 98.242188 54.882812 95.117188 L 128.453125 21.546875 C 131.578125 18.421875 135.816406 16.667969 140.238281 16.667969 Z M 140.238281 16.667969 "/>
<path style=" stroke:none;fill-rule:nonzero;fill:rgb(64.313728%,69.411767%,100%);fill-opacity:1;" d="M 91.667969 116.667969 L 158.332031 116.667969 C 172.140625 116.667969 183.332031 127.859375 183.332031 141.667969 C 183.332031 155.472656 172.140625 166.667969 158.332031 166.667969 L 91.667969 166.667969 C 77.859375 166.667969 66.667969 155.472656 66.667969 141.667969 C 66.667969 127.859375 77.859375 116.667969 91.667969 116.667969 Z M 91.667969 116.667969 "/>
<path style=" stroke:none;fill-rule:nonzero;fill:rgb(87.450981%,89.803922%,100%);fill-opacity:1;" d="M 166.667969 40.238281 L 166.667969 109.761719 C 166.667969 122.78125 156.113281 133.332031 143.097656 133.332031 L 73.570312 133.332031 C 60.554688 133.332031 50 122.78125 50 109.761719 C 50 103.511719 52.484375 97.515625 56.902344 93.097656 L 126.429688 23.570312 C 130.851562 19.148438 136.84375 16.667969 143.097656 16.667969 C 156.113281 16.667969 166.667969 27.21875 166.667969 40.238281 Z M 166.667969 40.238281 "/>
<path style=" stroke:none;fill-rule:nonzero;fill:rgb(93.725491%,94.901961%,100%);fill-opacity:1;" d="M 70.117188 96.546875 L 129.882812 36.785156 C 134.484375 32.183594 141.945312 32.183594 146.546875 36.785156 C 151.152344 41.386719 151.152344 48.847656 146.546875 53.453125 L 86.785156 113.214844 C 82.183594 117.816406 74.722656 117.816406 70.117188 113.214844 C 65.515625 108.613281 65.515625 101.152344 70.117188 96.546875 Z M 70.117188 96.546875 "/>
<path style=" stroke:none;fill-rule:nonzero;fill:rgb(0%,36.862746%,93.333334%);fill-opacity:1;" d="M 200 66.667969 L 283.332031 66.667969 C 292.539062 66.667969 300 74.128906 300 83.332031 L 300 183.332031 C 300 192.539062 292.539062 200 283.332031 200 L 200 200 C 190.796875 200 183.332031 192.539062 183.332031 183.332031 L 183.332031 83.332031 C 183.332031 74.128906 190.796875 66.667969 200 66.667969 Z M 200 66.667969 "/>
<path style=" stroke:none;fill-rule:nonzero;fill:rgb(8.627451%,22.352941%,41.176471%);fill-opacity:1;" d="M 133.332031 333.332031 L 116.667969 333.332031 C 107.464844 333.328125 100.011719 325.867188 100.011719 316.667969 C 100.011719 307.464844 107.464844 300.007812 116.667969 300 L 133.332031 300 C 142.535156 300.007812 149.988281 307.464844 149.988281 316.667969 C 149.988281 325.867188 142.535156 333.328125 133.332031 333.332031 Z M 133.332031 333.332031 "/>
<path style=" stroke:none;fill-rule:nonzero;fill:rgb(8.627451%,22.352941%,41.176471%);fill-opacity:1;" d="M 283.332031 333.332031 L 200 333.332031 C 190.800781 333.328125 183.34375 325.867188 183.34375 316.667969 C 183.34375 307.464844 190.800781 300.007812 200 300 L 283.332031 300 C 292.535156 300.007812 299.988281 307.464844 299.988281 316.667969 C 299.988281 325.867188 292.535156 333.328125 283.332031 333.332031 Z M 283.332031 333.332031 "/>
<path style=" stroke:none;fill-rule:nonzero;fill:rgb(8.627451%,22.352941%,41.176471%);fill-opacity:1;" d="M 283.332031 266.667969 L 116.667969 266.667969 C 107.460938 266.667969 100 259.203125 100 250 C 100 240.796875 107.460938 233.332031 116.667969 233.332031 L 283.332031 233.332031 C 292.539062 233.332031 300 240.796875 300 250 C 300 259.203125 292.539062 266.667969 283.332031 266.667969 Z M 283.332031 266.667969 "/>
<path style=" stroke:none;fill-rule:nonzero;fill:rgb(100%,84.313726%,0%);fill-opacity:1;" d="M 266.667969 108.332031 C 266.667969 94.527344 255.472656 83.332031 241.667969 83.332031 C 227.859375 83.332031 216.667969 94.527344 216.667969 108.332031 C 216.667969 122.140625 227.859375 133.332031 241.667969 133.332031 C 255.472656 133.332031 266.667969 122.140625 266.667969 108.332031 Z M 266.667969 108.332031 "/>
<path style=" stroke:none;fill-rule:nonzero;fill:rgb(100%,84.313726%,0%);fill-opacity:1;" d="M 266.667969 150 L 216.667969 150 C 207.464844 150.007812 200.011719 157.464844 200.011719 166.667969 C 200.011719 175.867188 207.464844 183.328125 216.667969 183.332031 L 266.667969 183.332031 C 275.871094 183.332031 283.332031 175.871094 283.332031 166.667969 C 283.332031 157.460938 275.871094 150 266.667969 150 Z M 266.667969 150 "/>
<path style=" stroke:none;fill-rule:nonzero;fill:rgb(64.313728%,69.411767%,100%);fill-opacity:1;" d="M 208.332031 200 L 275 200 C 279.601562 200 283.332031 203.730469 283.332031 208.332031 C 283.332031 212.9375 279.601562 216.667969 275 216.667969 L 208.332031 216.667969 C 203.730469 216.667969 200 212.9375 200 208.332031 C 200 203.730469 203.730469 200 208.332031 200 Z M 208.332031 200 "/>
</g>
</svg>
